# xmcd
#
# Track frame offsets: 
#        150
#        23880
#        60257
#        78625
#        95080
#        115470
#        155835
#
# Disc length: 2665 seconds
#
# Revision: 0
# Processed by: cddbd v1.4PL0 Copyright (c) Steve Scherf et al.
# Submitted via: ExactAudioCopy v0.95a1
#
DISCID=580a6707
DTITLE=New Grass Revival - Too Late To Turn Back Now
DYEAR=1992
DGENRE=Bluegrass
TTITLE0=Lonesome And A Long Way From Home
TTITLE1=With Care From Someone
TTITLE2=High Lonesome Sound
TTITLE3=Rainbow Bridge
TTITLE4=Watermelon Man
TTITLE5=Fly Through The Country
TTITLE6=Red Man Blues
EXTD=
EXTT0=
EXTT1=
EXTT2=
EXTT3=
EXTT4=
EXTT5=
EXTT6=
PLAYORDER=
